<?xml version="1.0" encoding="utf-8"?>
<!-- Generator: Adobe Illustrator 24.0.1, SVG Export Plug-In . SVG Version: 6.00 Build 0)  -->
<svg version="1.1" id="Layer_1" xmlns="http://www.w3.org/2000/svg" xmlns:xlink="http://www.w3.org/1999/xlink" x="0px" y="0px"
	 viewBox="0 0 30 50" style="enable-background:new 0 0 30 50;" xml:space="preserve">
<g>
	<path d="M17.89,11.64v1.16h-1.16c0.69,0.34,1.29,1.15,1.29,2.35c0,1.51-0.83,2.58-2.96,2.58h-4.5v-1.16h4.58
		c1.29,0,1.86-0.55,1.86-1.72c0-1.08-0.69-2.05-2-2.05h-4.44v-1.16H17.89z"/>
	<path d="M14.15,19.46h0.11c2.21,0,3.75,1.42,3.75,3.43c0,1.69-1.02,3.29-3.64,3.29H14v-5.52c-1.67,0.06-2.59,0.85-2.59,2.35
		c0,1.13,0.42,1.79,1.27,1.95v1.16c-1.47-0.25-2.24-1.47-2.24-3.12C10.44,20.93,11.9,19.46,14.15,19.46z M14.94,24.99
		c1.51-0.11,2.12-0.9,2.12-2.1c0-1.19-0.81-1.99-2.12-2.19V24.99z"/>
	<path d="M14.33,29.59l3.56-2.45v1.36l-2.66,1.79l2.66,1.78v1.26l-3.47-2.42l-3.85,2.68V32.2l2.96-1.97l-2.96-2.02v-1.25
		L14.33,29.59z"/>
	<path d="M12.4,35.39h4.51v-1.05h0.98v1.05h1.67v1.16h-1.67v1.71h-0.98v-1.71h-4.4c-0.71,0-1.06,0.32-1.06,0.91
		c0,0.36,0.05,0.64,0.15,0.9h-0.98c-0.08-0.24-0.15-0.52-0.15-0.99C10.47,36.04,11.25,35.39,12.4,35.39z"/>
</g>
</svg>
