<?xml version="1.0" encoding="utf-8"?>
<!-- Generator: Adobe Illustrator 24.0.1, SVG Export Plug-In . SVG Version: 6.00 Build 0)  -->
<svg version="1.1" id="Layer_1" xmlns="http://www.w3.org/2000/svg" xmlns:xlink="http://www.w3.org/1999/xlink" x="0px" y="0px"
	 viewBox="0 0 30 50" style="enable-background:new 0 0 30 50;" xml:space="preserve">
<g>
	<path d="M10.13,38.83v-1.16h1.23C10.64,37.25,10,36.26,10,35.19c0-1.92,1.4-3.33,3.68-3.33h0.11c2.24,0,3.78,1.32,3.78,3.33
		c0,1.2-0.6,2.06-1.33,2.48H20v1.16H10.13z M13.85,33.06h-0.11c-1.85,0-2.77,1.02-2.77,2.26c0,1.36,0.9,2.39,2.77,2.39h0.11
		c1.88,0,2.76-0.98,2.76-2.41C16.61,33.85,15.63,33.06,13.85,33.06z"/>
	<path d="M10.13,30.06v-1.16h1.32c-0.83-0.46-1.4-1.09-1.44-2.41h1.09c0.07,1.47,0.53,2.41,2.34,2.41h4.02v1.16H10.13z"/>
	<path d="M13.87,25.55h-0.11c-2.21,0-3.75-1.42-3.75-3.43c0-1.69,1.02-3.29,3.64-3.29h0.38v5.52c1.67-0.06,2.59-0.85,2.59-2.35
		c0-1.13-0.42-1.79-1.27-1.95v-1.16c1.47,0.25,2.24,1.47,2.24,3.12C17.58,24.08,16.12,25.55,13.87,25.55z M13.08,20.02
		c-1.51,0.11-2.12,0.9-2.12,2.1c0,1.19,0.81,1.99,2.12,2.19V20.02z"/>
	<path d="M10.13,17.95v-1.26l6.15-2.17l-6.15-2.14v-1.21l7.33,2.63v1.48L10.13,17.95z"/>
</g>
</svg>
