<svg id="Laag_1" data-name="Laag 1" xmlns="http://www.w3.org/2000/svg" xmlns:xlink="http://www.w3.org/1999/xlink" viewBox="0 0 442.96 447.36"><defs><style>.cls-1{fill:url(#Naamloos_verloop_18);}.cls-2{fill:#fff;}</style><linearGradient id="Naamloos_verloop_18" x1="32.24" y1="223.68" x2="410.72" y2="223.68" gradientUnits="userSpaceOnUse"><stop offset="0" stop-color="#77c697"/><stop offset="1" stop-color="#5cb288"/></linearGradient></defs><title>Artboard 12</title><rect class="cls-1" x="32.24" y="34.44" width="378.48" height="378.48" rx="37.61"/><path class="cls-2" d="M337.15,249V227.29a14.33,14.33,0,0,0,8.38-16.24c-10.46-44.85-77.93-60.89-124-60.89-22.62,0-48.28,3.79-69.95,11.55a4.9,4.9,0,1,0,3.3,9.23c.83-.3,1.69-.59,2.54-.88l6.44,17.67a14.7,14.7,0,1,0,27.63-10.06L186.09,163c5.55-.93,11.21-1.66,16.93-2.17l9.8,26.93a14.71,14.71,0,0,0,27.64-10.06l-6.3-17.3c6.13.37,12.29,1,18.42,1.93l9.25,25.43a14.71,14.71,0,0,0,27.64-10.06l-2.61-7.16c19,6.67,43.72,19.61,49.12,42.77.67,2.86-2,5.5-4.89,5.5H111.87c-2.93,0-5.56-2.65-4.89-5.5,2.09-9,7.26-17.15,15.35-24.29a4.9,4.9,0,1,0-6.49-7.35c-9.65,8.51-15.84,18.4-18.41,29.41a14.32,14.32,0,0,0,8.38,16.24V249A14.72,14.72,0,0,0,96,262.89a34.35,34.35,0,0,0,34.31,34.31H312.64A34.35,34.35,0,0,0,347,262.89,14.73,14.73,0,0,0,337.15,249ZM179.3,187.3a4.9,4.9,0,0,1-6.28-2.93l-6.26-17.17c3.12-.86,6.33-1.64,9.58-2.35L182.23,181A4.91,4.91,0,0,1,179.3,187.3Zm49,0a4.9,4.9,0,0,1-6.28-2.93l-8.82-24.23c2.79-.11,5.56-.18,8.27-.18l2.1,0,7.66,21A4.9,4.9,0,0,1,228.31,187.3Zm49,0a4.91,4.91,0,0,1-6.29-2.93l-7.33-20.13c3.89.78,7.7,1.68,11.41,2.66L280.26,181A4.91,4.91,0,0,1,277.33,187.3Zm-4.81,60.89,19.61-19.61h35.22v19.61Zm-70.65,17.57-37.18-37.18h74.36Zm-86.26-37.18h35.22l19.6,19.61H115.61Zm137.31,0h25.34l-37.18,37.18-12.67-12.67Zm59.72,58.82H130.31a24.53,24.53,0,0,1-24.5-24.51,4.9,4.9,0,0,1,4.9-4.9h69.53l18.17,18.17a4.89,4.89,0,0,0,6.93,0L221.48,260l16.14,16.14a4.89,4.89,0,0,0,6.93,0L262.72,258h69.53a4.91,4.91,0,0,1,4.9,4.9A24.53,24.53,0,0,1,312.64,287.4Z"/><path class="cls-2" d="M140.12,174.18a4.91,4.91,0,1,0-4.91,4.9A4.9,4.9,0,0,0,140.12,174.18Z"/></svg>